<?xml version="1.0" encoding="utf-8"?>
<!-- Generator: Adobe Illustrator 26.3.1, SVG Export Plug-In . SVG Version: 6.00 Build 0)  -->
<svg version="1.1" id="Layer_1" xmlns="http://www.w3.org/2000/svg" xmlns:xlink="http://www.w3.org/1999/xlink" x="0px" y="0px"
	 viewBox="0 0 71.2 68.3" style="enable-background:new 0 0 71.2 68.3;" xml:space="preserve">
<style type="text/css">
	.st0{fill:none;stroke:#FFFFFF;stroke-width:1.5;stroke-miterlimit:10;}
	.st1{fill:none;stroke:#FFFFFF;stroke-width:1.5;stroke-miterlimit:10;stroke-dasharray:0,0,2,4;}
	.st2{fill:none;stroke:#FFFFFF;stroke-miterlimit:10;}
</style>
<g id="a">
</g>
<g id="b">
	<g id="c">
		<path class="st0" d="M12.8,0.8h45.7c6.6,0,12,5.4,12,12v42.8c0,6.6-5.4,12-12,12H12.8c-6.6,0-12-5.4-12-12V12.8
			C0.8,6.1,6.1,0.8,12.8,0.8z"/>
		<polyline class="st0" points="54.4,52.1 18,52.1 18,15.7 54.4,15.7 54.4,35.5 		"/>
		<line class="st1" x1="54.4" y1="35.5" x2="54.4" y2="52.1"/>
	</g>
</g>
<path class="st2" d="M47.8,15.7c2.2,11-0.5,16.3-5,20.2c-6.6,5.8-16.7,3.3-18.8,16.3"/>
<path class="st2" d="M18,28.3c0,0,13.8-0.9,18.2,11.2"/>
</svg>
