<?xml version="1.0" encoding="UTF-8"?><svg xmlns="http://www.w3.org/2000/svg" viewBox="0 0 71.2 68.33"><defs><style>.d{fill:none;stroke:#fff;stroke-miterlimit:10;stroke-width:1.5px;}.e{fill:none;stroke:#fff;stroke-linejoin:round;stroke-width:1.5px;}</style></defs><g id="a"/><g id="b"><g id="c"><rect class="d" x=".75" y=".75" width="69.7" height="66.83" rx="12" ry="12"/><path class="e" d="M 32.15,19.76 L 32.63,15.38 L 38.57,15.38 L 39.05,19.76 L 43.33,21.53 L 46.77,18.78 L 50.97,22.98 L 48.22,26.42 L 49.99,30.70 L 54.37,31.18 L 54.37,37.12 L 49.99,37.60 L 48.22,41.88 L 50.97,45.32 L 46.77,49.52 L 43.33,46.77 L 39.05,48.54 L 38.57,52.92 L 32.63,52.92 L 32.15,48.54 L 27.87,46.77 L 24.43,49.52 L 20.23,45.32 L 22.98,41.88 L 21.21,37.60 L 16.83,37.12 L 16.83,31.18 L 21.21,30.70 L 22.98,26.42 L 20.23,22.98 L 24.43,18.78 L 27.87,21.53 Z"/><circle class="d" cx="35.6" cy="34.15" r="6.6"/></g></g></svg>
